<svg width="24" height="23" viewBox="0 0 24 23" fill="none" xmlns="http://www.w3.org/2000/svg">
<g clip-path="url(#clip0_33_13)">
<path d="M24 11.2485C24 5.18579 18.627 0.27124 12 0.27124C5.37001 0.272604 -0.00299072 5.18579 -0.00299072 11.2499C-0.00299072 16.7276 4.38601 21.2685 10.122 22.0921V14.4217H7.07701V11.2499H10.125V8.82942C10.125 6.07897 11.9175 4.55988 14.658 4.55988C15.972 4.55988 17.3445 4.77397 17.3445 4.77397V7.47397H15.831C14.3415 7.47397 13.8765 8.32079 13.8765 9.18942V11.2485H17.2035L16.6725 14.4203H13.875V22.0908C19.611 21.2671 24 16.7262 24 11.2485Z" fill="#F5F5F5"/>
</g>
<defs>
<clipPath id="clip0_33_13">
<rect width="24" height="21.8182" fill="white" transform="translate(0 0.272705)"/>
</clipPath>
</defs>
</svg>
