<svg width="24" height="23" viewBox="0 0 24 23" fill="none" xmlns="http://www.w3.org/2000/svg">
<g clip-path="url(#clip0_33_21)">
<path d="M12 0.272705C8.7435 0.272705 8.334 0.286341 7.0545 0.33816C5.775 0.392705 4.9035 0.575432 4.14 0.845432C3.33914 1.11928 2.61374 1.54883 2.0145 2.10407C1.40411 2.64911 0.931661 3.30849 0.63 4.03634C0.333 4.72907 0.1305 5.5227 0.072 6.6818C0.015 7.8477 0 8.21861 0 11.1832C0 14.145 0.015 14.5159 0.072 15.6791C0.132 16.8409 0.333 17.6332 0.63 18.3272C0.9375 19.0445 1.347 19.6527 2.0145 20.2595C2.6805 20.8663 3.3495 21.24 4.1385 21.5182C4.9035 21.7882 5.7735 21.9722 7.0515 22.0254C8.3325 22.0772 8.7405 22.0909 12 22.0909C15.2595 22.0909 15.666 22.0772 16.947 22.0254C18.2235 21.9709 19.098 21.7882 19.8615 21.5182C20.6618 21.2442 21.3867 20.8146 21.9855 20.2595C22.653 19.6527 23.0625 19.0445 23.37 18.3272C23.6655 17.6332 23.868 16.8409 23.928 15.6791C23.985 14.5159 24 14.145 24 11.1818C24 8.21861 23.985 7.84771 23.928 6.68316C23.868 5.52271 23.6655 4.72907 23.37 4.03634C23.0684 3.30847 22.5959 2.64908 21.9855 2.10407C21.3864 1.54863 20.661 1.11904 19.86 0.845432C19.095 0.575432 18.222 0.391341 16.9455 0.33816C15.6645 0.286341 15.258 0.272705 11.997 0.272705H12.0015H12ZM10.9245 2.23907H12.0015C15.2055 2.23907 15.585 2.24861 16.8495 2.3018C18.0195 2.34952 18.6555 2.52816 19.0785 2.6768C19.638 2.87452 20.0385 3.1118 20.4585 3.49361C20.8785 3.87543 21.138 4.23816 21.3555 4.74816C21.5205 5.13134 21.7155 5.70952 21.768 6.77316C21.8265 7.92271 21.8385 8.26771 21.8385 11.1791C21.8385 14.0904 21.8265 14.4368 21.768 15.5863C21.7155 16.65 21.519 17.2268 21.3555 17.6113C21.1631 18.085 20.856 18.5133 20.457 18.8645C20.037 19.2463 19.638 19.4823 19.077 19.68C18.657 19.83 18.021 20.0073 16.8495 20.0563C15.585 20.1082 15.2055 20.1204 12.0015 20.1204C8.7975 20.1204 8.4165 20.1082 7.152 20.0563C5.982 20.0073 5.3475 19.83 4.9245 19.68C4.40325 19.5053 3.93169 19.2267 3.5445 18.8645C3.14513 18.5128 2.83758 18.0841 2.6445 17.61C2.481 17.2268 2.2845 16.6486 2.232 15.585C2.175 14.4354 2.163 14.0904 2.163 11.1763C2.163 8.26361 2.175 7.91998 2.232 6.77043C2.286 5.7068 2.481 5.12861 2.646 4.74407C2.8635 4.23543 3.1245 3.87134 3.5445 3.48952C3.9645 3.10771 4.3635 2.8718 4.9245 2.67407C5.3475 2.52407 5.982 2.3468 7.152 2.29771C8.259 2.25134 8.688 2.23771 10.9245 2.23634V2.23907ZM18.4065 4.04998C18.2174 4.04998 18.0301 4.08384 17.8554 4.14963C17.6807 4.21541 17.522 4.31184 17.3883 4.4334C17.2545 4.55496 17.1485 4.69928 17.0761 4.8581C17.0037 5.01693 16.9665 5.18716 16.9665 5.35907C16.9665 5.53098 17.0037 5.70121 17.0761 5.86004C17.1485 6.01886 17.2545 6.16318 17.3883 6.28474C17.522 6.4063 17.6807 6.50272 17.8554 6.56851C18.0301 6.6343 18.2174 6.66816 18.4065 6.66816C18.7884 6.66816 19.1547 6.53024 19.4247 6.28474C19.6948 6.03923 19.8465 5.70626 19.8465 5.35907C19.8465 5.01188 19.6948 4.6789 19.4247 4.4334C19.1547 4.1879 18.7884 4.04998 18.4065 4.04998ZM12.0015 5.57998C11.1841 5.56838 10.3723 5.70473 9.61347 5.98108C8.85459 6.25743 8.16377 6.66826 7.58123 7.18965C6.99868 7.71104 6.53605 8.33257 6.22026 9.01806C5.90448 9.70355 5.74185 10.4393 5.74185 11.1825C5.74185 11.9257 5.90448 12.6614 6.22026 13.3469C6.53605 14.0324 6.99868 14.6539 7.58123 15.1753C8.16377 15.6967 8.85459 16.1075 9.61347 16.3839C10.3723 16.6602 11.1841 16.7966 12.0015 16.785C13.6193 16.762 15.1623 16.1617 16.2975 15.1135C17.4326 14.0653 18.0689 12.6534 18.0689 11.1825C18.0689 9.71156 17.4326 8.29963 16.2975 7.25145C15.1623 6.20328 13.6193 5.60292 12.0015 5.57998ZM12.0015 7.54498C13.0625 7.54498 14.08 7.92814 14.8303 8.61018C15.5805 9.29221 16.002 10.2173 16.002 11.1818C16.002 12.1463 15.5805 13.0714 14.8303 13.7534C14.08 14.4355 13.0625 14.8186 12.0015 14.8186C10.9405 14.8186 9.92296 14.4355 9.17272 13.7534C8.42248 13.0714 8.001 12.1463 8.001 11.1818C8.001 10.2173 8.42248 9.29221 9.17272 8.61018C9.92296 7.92814 10.9405 7.54498 12.0015 7.54498Z" fill="white"/>
</g>
<defs>
<clipPath id="clip0_33_21">
<rect width="24" height="21.8182" fill="white" transform="translate(0 0.272705)"/>
</clipPath>
</defs>
</svg>
