<svg width="24" height="23" viewBox="0 0 24 23" fill="none" xmlns="http://www.w3.org/2000/svg">
<path fill-rule="evenodd" clip-rule="evenodd" d="M12 3.90906C12.855 3.90906 13.732 3.92906 14.582 3.96178L15.586 4.00542L16.547 4.05724L17.447 4.11269L18.269 4.17088C19.161 4.23295 20.0004 4.57901 20.6395 5.14818C21.2786 5.71736 21.6764 6.47318 21.763 7.28269L21.803 7.66906L21.878 8.49633C21.948 9.3536 22 10.2881 22 11.1818C22 12.0754 21.948 13.01 21.878 13.8672L21.803 14.6945C21.79 14.8272 21.777 14.9554 21.763 15.0809C21.6764 15.8905 21.2784 16.6465 20.6391 17.2157C19.9999 17.7849 19.1602 18.1308 18.268 18.1927L17.448 18.25L16.548 18.3063L15.586 18.3581L14.582 18.4018C13.7218 18.4358 12.861 18.4533 12 18.4545C11.139 18.4533 10.2782 18.4358 9.418 18.4018L8.414 18.3581L7.453 18.3063L6.553 18.25L5.731 18.1927C4.83895 18.1306 3.99955 17.7846 3.36047 17.2154C2.72139 16.6462 2.32357 15.8904 2.237 15.0809L2.197 14.6945L2.122 13.8672C2.04554 12.9737 2.00484 12.078 2 11.1818C2 10.2881 2.052 9.3536 2.122 8.49633L2.197 7.66906C2.21 7.53633 2.223 7.40815 2.237 7.28269C2.32354 6.47333 2.72122 5.71762 3.36009 5.14846C3.99897 4.5793 4.83813 4.23315 5.73 4.17088L6.551 4.11269L7.451 4.05724L8.413 4.00542L9.417 3.96178C10.2775 3.92781 11.1387 3.91024 12 3.90906ZM10 8.97724V13.3863C10 13.8063 10.5 14.0681 10.9 13.8591L15.1 11.6545C15.1914 11.6067 15.2673 11.5378 15.3201 11.4548C15.3729 11.3718 15.4007 11.2777 15.4007 11.1818C15.4007 11.0859 15.3729 10.9917 15.3201 10.9088C15.2673 10.8258 15.1914 10.7569 15.1 10.7091L10.9 8.50542C10.8088 8.45753 10.7053 8.43233 10.5999 8.43234C10.4945 8.43236 10.3911 8.45759 10.2998 8.50551C10.2086 8.55342 10.1329 8.62233 10.0802 8.7053C10.0276 8.78827 9.99993 8.88237 10 8.97815V8.97724Z" fill="white"/>
</svg>
